<svg preserveAspectRatio="none" overflow="visible" style="display: block;" width="79.0103" height="11.1545" viewBox="0 0 79.0103 11.1545" fill="none" xmlns="http://www.w3.org/2000/svg">
<g id="nuni-cheeks">
<path id="Vector" d="M9.29534 11.1544C14.429 11.1544 18.5907 8.65741 18.5907 5.5772C18.5907 2.497 14.429 0 9.29534 0C4.16166 0 0 2.497 0 5.5772C0 8.65741 4.16166 11.1544 9.29534 11.1544Z" fill="url(#paint0_radial_0_14)"/>
<path id="Vector_2" d="M69.7148 11.1545C74.8485 11.1545 79.0102 8.65748 79.0102 5.57727C79.0102 2.49707 74.8485 7.10121e-05 69.7148 7.10121e-05C64.5812 7.10121e-05 60.4195 2.49707 60.4195 5.57727C60.4195 8.65748 64.5812 11.1545 69.7148 11.1545Z" fill="url(#paint1_radial_0_14)"/>
</g>
<defs>
<radialGradient id="paint0_radial_0_14" cx="0" cy="0" r="1" gradientUnits="userSpaceOnUse" gradientTransform="translate(9.29534 5.5772) scale(9.29534 5.5772)">
<stop stop-color="#F6A8A4" stop-opacity="0.6"/>
<stop offset="0.62" stop-color="#F6A8A4" stop-opacity="0.26"/>
<stop offset="1" stop-color="#F6A8A4" stop-opacity="0"/>
</radialGradient>
<radialGradient id="paint1_radial_0_14" cx="0" cy="0" r="1" gradientUnits="userSpaceOnUse" gradientTransform="translate(69.7148 5.57727) scale(9.29534 5.5772)">
<stop stop-color="#F6A8A4" stop-opacity="0.6"/>
<stop offset="0.62" stop-color="#F6A8A4" stop-opacity="0.26"/>
<stop offset="1" stop-color="#F6A8A4" stop-opacity="0"/>
</radialGradient>
</defs>
</svg>
