<svg preserveAspectRatio="none" overflow="visible" style="display: block;" width="43.8901" height="11.4494" viewBox="0 0 43.8901 11.4494" fill="none" xmlns="http://www.w3.org/2000/svg">
<g id="nuni-eyes">
<path id="Vector" d="M4.84159 11.1159C7.33142 11.1159 9.34983 8.70217 9.34983 5.72464C9.34983 2.74711 7.33142 0.33335 4.84159 0.33335C2.35176 0.33335 0.33335 2.74711 0.33335 5.72464C0.33335 8.70217 2.35176 11.1159 4.84159 11.1159Z" fill="black" stroke="black" stroke-width="0.6667"/>
<path id="Vector_2" d="M38.7696 11.116C41.4134 11.116 43.5567 8.70225 43.5567 5.72472C43.5567 2.74719 41.4134 0.333423 38.7696 0.333423C36.1258 0.333423 33.9825 2.74719 33.9825 5.72472C33.9825 8.70225 36.1258 11.116 38.7696 11.116Z" fill="black" stroke="black" stroke-width="0.6667"/>
<path id="Vector_3" d="M7.11779 5.20697C7.5846 4.93746 7.55727 4.01616 7.05674 3.14922C6.5562 2.28227 5.77201 1.79796 5.30519 2.06747C4.83838 2.33699 4.86571 3.25828 5.36624 4.12523C5.86677 4.99217 6.65097 5.47649 7.11779 5.20697Z" fill="white" stroke="black" stroke-width="0.6667"/>
<path id="Vector_4" d="M41.7348 5.45459C42.246 5.15941 42.2548 4.2173 41.7542 3.35036C41.2537 2.48341 40.4335 2.01991 39.9222 2.31509C39.4109 2.61028 39.4022 3.55237 39.9027 4.41932C40.4033 5.28627 41.2235 5.74978 41.7348 5.45459Z" fill="white" stroke="black" stroke-width="0.6667"/>
</g>
</svg>
