<svg preserveAspectRatio="none" overflow="visible" style="display: block;" width="153" height="101" viewBox="0 0 153 101" fill="none" xmlns="http://www.w3.org/2000/svg">
<g id="Mask group">
<mask id="mask0_0_19" style="mask-type:alpha" maskUnits="userSpaceOnUse" x="0" y="0" width="153" height="101">
<rect id="Rectangle 31" width="153" height="101" fill="#D9D9D9"/>
</mask>
<g mask="url(#mask0_0_19)">
<path id="circle-annotation" d="M-472.301 -8.9601C-471.495 -9.55162 -469.076 -11.3262 -467.328 -12.3922C-465.715 -13.5753 -463.968 -14.7589 -462.086 -15.9431C-460.338 -17.1267 -458.456 -18.311 -456.574 -19.4952C-454.557 -20.68 -452.54 -21.8648 -450.388 -23.0502C-448.371 -24.235 -446.219 -25.4204 -443.933 -26.6064C-441.646 -27.6748 -439.359 -28.8608 -437.072 -30.0468C-434.651 -31.2334 -432.229 -32.3023 -429.673 -33.4895C-427.251 -34.6761 -424.695 -35.7457 -422.004 -36.9335C-419.312 -38.0036 -416.621 -39.1914 -413.93 -40.2616C-411.103 -41.3323 -408.277 -42.4031 -405.451 -43.5914C-402.625 -44.6622 -399.664 -45.7335 -396.702 -46.8049C-393.741 -47.8763 -390.645 -48.8306 -387.549 -49.9025C-384.453 -50.9745 -381.222 -52.047 -378.126 -53.0014C-374.895 -53.9563 -371.664 -55.0289 -368.298 -55.9844C-365.067 -56.9393 -361.701 -57.8949 -358.335 -58.8504C-354.969 -59.8059 -351.468 -60.762 -347.967 -61.7182C-344.601 -62.6737 -341.1 -63.6298 -337.464 -64.5865C-333.963 -65.4251 -330.328 -66.3818 -326.826 -67.2203C-323.19 -68.0594 -319.554 -69.0161 -315.783 -69.8558C-312.147 -70.695 -308.376 -71.4171 -304.605 -72.2568C-300.834 -72.9789 -297.063 -73.8186 -293.291 -74.5407C-289.52 -75.2628 -285.614 -75.9855 -281.707 -76.7083C-277.936 -77.4304 -274.029 -78.0355 -270.123 -78.7582C-266.216 -79.3633 -262.309 -79.9684 -258.268 -80.5741C-254.361 -81.1792 -250.454 -81.7843 -246.413 -82.39C-242.371 -82.8781 -238.464 -83.3657 -234.422 -83.8538C-230.38 -84.4595 -226.338 -84.83 -222.295 -85.3181C-218.253 -85.8062 -214.211 -86.1767 -210.168 -86.5472C-206.126 -86.9178 -202.083 -87.2883 -198.041 -87.6588C-193.863 -88.0299 -189.82 -88.2828 -185.778 -88.6533C-181.735 -88.9062 -177.557 -89.1598 -173.514 -89.4127C-169.471 -89.6656 -165.427 -89.8009 -161.384 -89.9362C-157.206 -90.1898 -153.162 -90.3251 -149.119 -90.4604C-145.075 -90.5957 -141.031 -90.6135 -136.988 -90.7488C-132.944 -90.7665 -128.9 -90.7842 -124.856 -90.802C-120.812 -90.8197 -116.768 -90.8374 -112.858 -90.8546C-108.814 -90.7547 -104.904 -90.6543 -100.86 -90.5544C-96.9504 -90.5715 -92.9054 -90.3541 -88.9957 -90.2536C-85.0859 -90.1532 -81.1757 -89.9351 -77.2654 -89.7171C-73.49 -89.4984 -69.5798 -89.2804 -65.8043 -89.0617C-61.8941 -88.8437 -58.1187 -88.625 -54.3427 -88.2888C-50.5668 -87.9526 -46.7914 -87.7339 -43.0155 -87.3977C-39.3743 -87.0609 -35.5979 -86.607 -31.9567 -86.2702C-28.3156 -85.9334 -24.674 -85.479 -21.1672 -85.024C-17.5255 -84.5695 -14.0187 -84.1145 -10.5119 -83.6595C-7.00505 -83.2045 -3.4982 -82.7495 -0.125671 -82.1763C3.38116 -81.7213 6.75369 -81.1481 9.99141 -80.5743C13.3639 -80.0011 16.7365 -79.4279 19.9742 -78.8541C23.2119 -78.2803 26.3149 -77.706 29.5531 -77.0146C32.6565 -76.3226 35.7594 -75.7482 38.8628 -75.0563C41.8315 -74.3637 44.8001 -73.6711 47.7687 -72.9786C50.7374 -72.286 53.5712 -71.5928 56.4055 -70.7821C59.2393 -70.0889 62.0736 -69.2782 64.7731 -68.4668C67.4722 -67.7731 70.1717 -66.9618 72.7364 -66.1498C75.3012 -65.3379 77.8658 -64.526 80.2958 -63.7134C82.7262 -62.7833 85.1561 -61.9708 87.4513 -61.1577C89.7469 -60.227 92.042 -59.4139 94.2028 -58.4826C96.3636 -57.5513 98.5244 -56.62 100.55 -55.8057C102.576 -54.8738 104.602 -53.9419 106.493 -53.0094C108.385 -51.9593 110.276 -51.0268 112.033 -50.0938C113.789 -49.1607 115.411 -48.1094 117.033 -47.1758C118.654 -46.2421 120.142 -45.1903 121.629 -44.1384C123.116 -43.2042 124.468 -42.1517 125.685 -41.2163C127.038 -40.1639 128.256 -39.1108 129.339 -38.0572C130.421 -37.1212 131.504 -36.0675 132.452 -35.0133C133.4 -33.9591 134.348 -32.9049 135.162 -31.8501C135.975 -30.7953 136.653 -29.8575 137.331 -28.8021C138.01 -27.7467 138.554 -26.6907 139.097 -25.6347C139.506 -24.5782 139.915 -23.5216 140.324 -22.465C140.598 -21.4078 140.872 -20.3507 141.146 -19.2935C141.286 -18.2357 141.425 -17.178 141.429 -16.1196C141.569 -15.0619 141.438 -14.0029 141.443 -12.9446C141.313 -11.8856 141.047 -10.8261 140.783 -9.64898C140.653 -8.59003 140.253 -7.52991 139.853 -6.35219C139.453 -5.29207 138.919 -4.11377 138.384 -3.05306C137.85 -1.87475 137.181 -0.695838 136.377 0.366059C135.708 1.54496 134.904 2.72444 133.965 3.78693C133.161 4.96642 132.088 6.14709 131.149 7.32718C130.076 8.50785 128.868 9.68911 127.659 10.8704C126.451 12.0516 125.108 13.1159 123.765 14.2978C122.422 15.4796 120.944 16.6621 119.466 17.8445C117.853 19.0275 116.241 20.2106 114.628 21.3936C112.881 22.5773 111.133 23.6433 109.251 24.8275C107.368 26.0117 105.486 27.1959 103.469 28.2632C101.452 29.448 99.4346 30.6328 97.2823 31.7006C95.1305 32.886 92.9782 33.9538 90.6915 35.1398C88.4044 36.2082 85.9825 37.2772 83.5611 38.4637C81.1391 39.5327 78.7172 40.6017 76.1605 41.6713C73.6038 42.7409 70.9123 43.8111 68.2207 44.8812C65.5292 45.9514 62.8377 47.0216 60.0109 47.9747C57.1845 49.0455 54.3582 50.1163 51.3966 51.07C48.435 52.0238 45.4738 53.0951 42.3774 54.0495C39.4158 55.0032 36.3194 55.9576 33.0881 56.9125C29.9917 57.8669 26.7605 58.8218 23.5287 59.6592C20.2975 60.6141 16.931 61.452 13.565 62.4076C10.1984 63.2455 6.8319 64.0834 3.46537 64.9214C-0.0359613 65.7599 -3.53728 66.5984 -7.03861 67.437C-10.5399 68.2755 -14.1766 68.997 -17.8127 69.8361C-21.4493 70.5577 -25.0855 71.3968 -28.7221 72.1183C-32.3587 72.8398 -36.1301 73.562 -39.9021 74.1665C-43.6735 74.8886 -47.445 75.6107 -51.2169 76.2152C-55.1231 76.9379 -58.895 77.5424 -62.8018 78.1476C-66.7085 78.7527 -70.6153 79.3578 -74.522 79.9629C-78.4287 80.568 -82.3359 81.0555 -86.378 81.5436C-90.2847 82.1487 -94.3268 82.6369 -98.3688 83.125C-102.276 83.6125 -106.318 84.1006 -110.36 84.5887C-114.403 84.9592 -118.445 85.4473 -122.487 85.8178C-126.53 86.1883 -130.707 86.5595 -134.75 86.93C-138.792 87.3005 -142.969 87.6716 -147.013 87.9245C-151.055 88.295 -155.233 88.5485 -159.275 88.919C-163.318 89.172 -167.496 89.4255 -171.54 89.5608C-175.718 89.8143 -179.761 90.0672 -183.804 90.2026C-187.982 90.4561 -192.026 90.5914 -196.069 90.7267C-200.113 90.862 -204.156 90.9974 -208.335 91.0157C-212.379 91.151 -216.423 91.1687 -220.331 91.3035C-224.375 91.3212 -228.419 91.3389 -232.463 91.3567C-236.373 91.2562 -240.417 91.2739 -244.326 91.2911C-248.236 91.1906 -252.281 91.0908 -256.19 90.9903C-259.965 90.8893 -263.875 90.7888 -267.785 90.6884C-271.56 90.5873 -275.47 90.3693 -279.245 90.1506C-283.021 89.932 -286.796 89.8309 -290.572 89.4947C-294.212 89.2755 -297.988 89.0568 -301.629 88.72C-305.27 88.5008 -308.911 88.1639 -312.552 87.8271C-316.058 87.4897 -319.564 87.1523 -323.071 86.8149C-326.577 86.4775 -330.084 86.0224 -333.456 85.5668C-336.828 85.2288 -340.2 84.7732 -343.572 84.3176C-346.944 83.862 -350.181 83.2882 -353.419 82.832C-356.656 82.2583 -359.759 81.8015 -362.862 81.2271C-365.965 80.6527 -369.068 80.0783 -372.036 79.5034C-375.004 78.8108 -377.972 78.2358 -380.941 77.5433C-383.774 76.9677 -386.608 76.2746 -389.442 75.5814C-392.141 74.8876 -394.84 74.1939 -397.539 73.5002C-400.103 72.8058 -402.803 71.9945 -405.232 71.2996C-407.797 70.4876 -410.227 69.6751 -412.657 68.8626C-414.952 68.0495 -417.247 67.2364 -419.542 66.4232C-421.837 65.6101 -423.998 64.6788 -426.024 63.8645C-428.184 62.9332 -430.21 62.1189 -432.101 61.1865C-434.127 60.2546 -436.018 59.3221 -437.775 58.389C-439.666 57.4565 -441.288 56.5229 -443.044 55.5898C-444.666 54.6561 -446.287 53.7225 -447.775 52.6706C-449.261 51.7364 -450.614 50.6839 -451.966 49.7491C-453.318 48.6966 -454.671 47.6442 -455.753 46.7082C-456.971 45.6551 -458.054 44.6015 -459.137 43.5479C-460.219 42.6119 -461.167 41.5576 -461.981 40.5028C-462.929 39.4486 -463.607 38.3932 -464.421 37.3384C-465.099 36.283 -465.778 35.2276 -466.321 34.1717C-466.865 33.1157 -467.409 32.0597 -467.818 31.0031C-468.227 29.9465 -468.635 28.89 -468.91 27.8328C-469.184 26.7756 -469.458 25.7184 -469.597 24.6607C-469.736 23.6029 -469.876 22.5452 -469.881 21.3692C-469.885 20.3109 -469.89 19.2525 -469.76 18.076C-469.63 17.017 -469.365 15.8399 -469.1 14.7804C-468.835 13.6033 -468.571 12.4261 -468.036 11.3654C-467.637 10.1877 -467.237 9.00997 -466.568 7.83107C-466.034 6.65276 -465.365 5.47386 -464.696 4.29496C-463.892 3.11547 -463.088 1.93598 -462.284 0.756489C-461.346 -0.423593 -460.408 -1.72126 -459.334 -2.90193C-458.261 -4.0826 -457.188 -5.26328 -455.98 -6.56214C-454.772 -7.74341 -453.563 -8.92467 -452.22 -10.1065C-450.878 -11.406 -449.4 -12.5884 -447.922 -13.7709C-446.444 -14.9533 -444.832 -16.1363 -443.22 -17.437C-441.607 -18.62 -439.86 -19.8036 -437.977 -20.9879C-436.23 -22.1715 -434.348 -23.3557 -432.466 -24.5399C-430.583 -25.7242 -428.566 -26.909 -426.415 -28.0944C-424.398 -29.2792 -422.245 -30.347 -420.093 -31.5324C-417.807 -32.7184 -415.52 -33.7868 -413.233 -34.9728C-410.946 -36.1587 -408.524 -37.2277 -406.103 -38.2967C-403.681 -39.4833 -401.124 -40.5529 -398.568 -41.6225C-396.011 -42.8096 -393.32 -43.8798 -390.628 -44.95C-387.937 -46.0202 -383.765 -47.5672 -382.419 -48.1611L-383.099 -49.5693C-384.445 -49.093 -388.753 -47.6629 -391.444 -46.5928C-394.271 -45.6396 -396.963 -44.687 -399.52 -43.6174C-402.212 -42.6649 -404.769 -41.5953 -407.325 -40.5257C-409.882 -39.4561 -412.304 -38.5047 -414.726 -37.4357C-417.148 -36.3667 -419.435 -35.2984 -421.722 -34.23C-424.009 -33.044 -426.296 -31.9756 -428.449 -30.9078C-430.601 -29.84 -432.753 -28.6546 -434.77 -27.5873C-436.787 -26.4025 -438.805 -25.3353 -440.687 -24.1511C-442.569 -22.9669 -444.451 -21.7827 -446.199 -20.7166C-447.947 -19.533 -449.694 -18.3494 -451.307 -17.1663C-452.919 -15.9833 -454.532 -14.8003 -456.009 -13.5002C-457.487 -12.3178 -458.965 -11.1353 -460.307 -9.83588C-461.65 -8.65402 -462.859 -7.47275 -464.066 -6.17389C-465.275 -4.99263 -466.482 -3.69378 -467.555 -2.39551C-468.494 -1.21543 -469.567 0.0828372 -470.37 1.37992C-471.308 2.6776 -472.111 3.97469 -472.915 5.27177C-473.718 6.56886 -474.387 7.86536 -474.92 9.16126C-475.453 10.5748 -475.987 11.8707 -476.386 13.166C-476.784 14.5789 -477.183 15.8742 -477.447 17.2865C-477.711 18.5812 -477.84 19.993 -477.834 21.2865C-477.963 22.6982 -477.958 23.9918 -477.817 25.4023C-477.677 26.6953 -477.401 28.1052 -477.126 29.3976C-476.85 30.8075 -476.44 32.0993 -475.896 33.3905C-475.485 34.7998 -474.806 36.0904 -474.126 37.381C-473.447 38.6716 -472.632 39.9616 -471.818 41.2516C-471.004 42.4239 -470.055 43.7134 -468.972 44.8846C-468.023 46.174 -466.939 47.3452 -465.721 48.6334C-464.502 49.804 -463.284 50.9747 -461.931 52.1447C-460.578 53.3147 -459.226 54.3672 -457.738 55.5366C-456.25 56.7061 -454.763 57.7579 -453.006 58.8086C-451.383 59.9774 -449.761 61.0287 -447.869 62.0788C-446.112 63.1294 -444.221 64.0619 -442.33 65.112C-440.438 66.162 -438.412 67.0939 -436.385 68.1434C-434.359 69.0753 -432.198 70.0066 -429.903 70.9373C-427.742 71.8686 -425.446 72.7993 -423.151 73.6124C-420.721 74.5426 -418.426 75.3557 -415.86 76.2852C-413.431 77.0977 -410.866 77.9097 -408.301 78.7216C-405.602 79.5329 -403.037 80.3449 -400.203 81.038C-397.504 81.8494 -394.805 82.5431 -391.971 83.2363C-389.002 83.9288 -386.168 84.622 -383.2 85.3146C-380.231 86.0071 -377.263 86.5821 -374.159 87.2741C-371.057 87.8484 -367.954 88.4228 -364.716 88.9966C-361.613 89.571 -358.375 90.1448 -355.003 90.718C-351.765 91.1742 -348.393 91.7474 -345.021 92.203C-341.649 92.6586 -338.277 93.1142 -334.77 93.5692C-331.263 94.0242 -327.757 94.3616 -324.25 94.8166C-320.744 95.154 -317.103 95.4909 -313.461 95.8277C-309.82 96.1645 -306.179 96.5013 -302.403 96.8376C-298.763 97.0568 -294.987 97.393 -291.211 97.6117C-287.436 97.8303 -283.66 98.049 -279.75 98.267C-275.975 98.368 -272.065 98.5861 -268.155 98.6866C-264.245 98.9046 -260.335 99.0051 -256.426 99.1055C-252.381 99.2054 -248.472 99.1882 -244.427 99.2881C-240.518 99.271 -236.473 99.3708 -232.429 99.3531C-228.385 99.3354 -224.341 99.3176 -220.297 99.2999C-216.254 99.1646 -212.075 99.1463 -208.031 99.0109C-203.987 98.9932 -199.809 98.8573 -195.766 98.722C-191.587 98.586 -187.544 98.3331 -183.366 98.1972C-179.323 97.9443 -175.144 97.8084 -170.967 97.5549C-166.924 97.3019 -162.746 97.0484 -158.568 96.7949C-154.525 96.4244 -150.348 96.1709 -146.17 95.7998C-142.127 95.5469 -137.95 95.1758 -133.773 94.8047C-129.73 94.4341 -125.553 94.063 -121.511 93.5749C-117.468 93.2044 -113.291 92.7157 -109.249 92.3452C-105.207 91.8571 -101.165 91.369 -97.1226 90.8809C-93.0805 90.3928 -89.039 89.7871 -84.997 89.299C-80.9554 88.6933 -77.0487 88.0881 -73.0067 87.6C-69.0999 86.9949 -65.1932 86.3898 -61.287 85.6671C-57.3803 85.062 -53.4735 84.4569 -49.5673 83.7342C-45.6605 83.1291 -41.8891 82.4069 -38.1177 81.6848C-34.3463 80.9627 -30.5748 80.2406 -26.8034 79.5185C-23.0325 78.6788 -19.3958 77.9572 -15.7597 77.1181C-12.1231 76.3966 -8.48691 75.5575 -4.85078 74.7184C-1.34945 73.8798 2.28667 73.0407 5.788 72.2022C9.15403 71.2467 12.6554 70.4081 16.0219 69.5702C19.5227 68.6141 22.754 67.6591 26.12 66.7036C29.4865 65.8657 32.7177 64.9107 35.9485 63.8382C39.0449 62.8838 42.2761 61.9289 45.3725 60.9745C48.4685 59.9026 51.4301 58.9489 54.526 57.8769C57.4871 56.8056 60.3139 55.8524 63.2751 54.781C66.1014 53.7103 68.9277 52.6395 71.6188 51.4517C74.4451 50.381 77.1366 49.3108 79.6933 48.2412C82.3844 47.0535 84.9411 45.9839 87.3625 44.7973C89.9192 43.7277 92.3406 42.5411 94.6273 41.3551C97.0487 40.1686 99.3353 38.9826 101.487 37.7972C103.774 36.6112 105.926 35.4258 107.943 34.241C110.094 33.0556 112.111 31.8708 113.993 30.569C116.01 29.3841 117.892 28.1999 119.639 26.8987C121.387 25.7151 123.134 24.4138 124.746 23.2308C126.358 21.9302 127.97 20.6295 129.448 19.3295C130.926 18.1471 132.403 16.847 133.611 15.5481C134.953 14.2487 136.296 12.9492 137.369 11.651C138.576 10.3521 139.649 9.05387 140.722 7.7556C141.66 6.45792 142.598 5.16024 143.401 3.74556C144.339 2.44788 145.008 1.15139 145.676 -0.262694C146.344 -1.55919 147.013 -2.85569 147.546 -4.26919C147.945 -5.5645 148.343 -6.9774 148.742 -8.27272C149.006 -9.68503 149.27 -10.9798 149.399 -12.3915C149.528 -13.6856 149.522 -15.0967 149.516 -16.3903C149.51 -17.8014 149.235 -19.0938 149.095 -20.3867C148.819 -21.7967 148.544 -23.089 148 -24.3802C147.59 -25.672 147.18 -26.9637 146.5 -28.2543C145.956 -29.5455 145.276 -30.8361 144.462 -32.1261C143.647 -33.4161 142.834 -34.5885 141.885 -35.8779C140.936 -37.0497 139.853 -38.2209 138.769 -39.5097C137.685 -40.6809 136.467 -41.8515 135.249 -43.0222C133.896 -44.1922 132.678 -45.2452 131.19 -46.4147C129.837 -47.5847 128.215 -48.636 126.727 -49.8054C125.105 -50.8567 123.483 -51.9079 121.726 -52.9586C120.104 -54.0099 118.212 -55.0599 116.455 -56.1106C114.564 -57.1607 112.672 -58.2108 110.646 -59.2602C108.62 -60.1921 106.593 -61.2416 104.432 -62.1729C102.271 -63.1042 100.11 -64.1531 97.8144 -65.0838C95.5188 -66.0145 93.2232 -66.9452 90.7933 -67.7577C88.3629 -68.6879 85.9324 -69.618 83.3677 -70.4299C80.8025 -71.3594 78.2378 -72.1714 75.5377 -73.1003C72.973 -73.9122 70.1387 -74.723 67.4392 -75.5343C64.6048 -76.3451 61.7705 -77.1558 58.9367 -77.849C56.1024 -78.6597 53.1333 -79.4699 50.1646 -80.1625C47.0612 -80.8544 44.0926 -81.547 40.9892 -82.239C37.8853 -83.0485 34.6475 -83.6223 31.5441 -84.3143C28.3059 -85.0057 25.0681 -85.5795 21.6951 -86.2703C18.4574 -86.844 15.0848 -87.4172 11.7123 -87.9904C8.33979 -88.5636 4.83245 -89.1362 1.45992 -89.7094C-2.04741 -90.282 -5.55423 -90.7371 -9.19586 -91.1915C-12.7032 -91.7641 -16.3448 -92.2185 -19.9865 -92.6729C-23.4933 -93.1279 -27.2692 -93.4642 -30.9109 -93.9186C-34.6873 -94.3724 -38.3284 -94.7092 -42.1043 -95.0455C-45.8803 -95.3817 -49.6562 -95.718 -53.5669 -96.0536C-57.3429 -96.3898 -61.2531 -96.6079 -65.0285 -96.8265C-68.9393 -97.1622 -72.8495 -97.3802 -76.7597 -97.5983C-80.67 -97.8163 -84.7145 -97.9162 -88.6247 -98.1342C-92.6693 -98.2341 -96.579 -98.3345 -100.624 -98.4344C-104.668 -98.5343 -108.713 -98.6341 -112.757 -98.734C-116.801 -98.7163 -120.846 -98.8161 -124.89 -98.7984C-128.934 -98.7807 -132.978 -98.7629 -137.156 -98.627C-141.2 -98.6093 -145.244 -98.474 -149.423 -98.4556C-153.466 -98.3203 -157.644 -98.1844 -161.822 -97.9309C-165.866 -97.7956 -170.044 -97.5421 -174.087 -97.4067C-178.265 -97.1532 -182.308 -96.9003 -186.486 -96.6468C-190.663 -96.2757 -194.706 -96.0228 -198.884 -95.6517C-202.926 -95.2811 -207.103 -94.91 -211.146 -94.5395C-215.323 -94.1684 -219.366 -93.7979 -223.408 -93.3098C-227.585 -92.8211 -231.627 -92.333 -235.669 -91.8449C-239.711 -91.3568 -243.753 -90.8687 -247.794 -90.263C-251.836 -89.7749 -255.878 -89.1691 -259.92 -88.5634C-263.826 -87.9583 -267.868 -87.3526 -271.774 -86.6299C-275.816 -86.0242 -279.722 -85.3015 -283.628 -84.5788C-287.534 -83.8561 -291.44 -83.1334 -295.347 -82.4107C-299.118 -81.6886 -303.024 -80.8483 -306.795 -80.0086C-310.566 -79.2864 -314.337 -78.4467 -318.108 -77.607C-321.879 -76.7673 -325.515 -75.8106 -329.151 -74.9715C-332.921 -74.0142 -336.557 -73.1751 -340.058 -72.2189C-343.694 -71.2622 -347.195 -70.3061 -350.83 -69.3494C-354.331 -68.3933 -357.697 -67.4377 -361.197 -66.364C-364.563 -65.2909 -367.929 -64.2178 -371.294 -63.1446C-374.525 -62.0721 -377.89 -60.999 -381.121 -59.9264C-384.216 -58.7369 -387.447 -57.6644 -390.543 -56.4748C-393.639 -55.4029 -396.734 -54.2134 -399.695 -53.0244C-402.79 -51.8349 -405.616 -50.6465 -408.576 -49.4576C-411.402 -48.2692 -414.228 -47.0809 -417.054 -45.8925C-419.744 -44.5871 -422.435 -43.3994 -425.126 -42.094C-427.682 -40.9068 -430.373 -39.6015 -432.794 -38.4149C-435.35 -37.1101 -437.771 -35.806 -440.057 -34.62C-442.478 -33.3158 -444.764 -32.0122 -446.916 -30.7092C-449.202 -29.4056 -451.353 -28.1026 -453.37 -26.8002C-455.386 -25.4978 -457.403 -24.1954 -459.284 -22.776C-461.301 -21.4736 -463.047 -20.1724 -464.794 -18.8711C-466.541 -17.4523 -468.288 -16.1511 -469.765 -14.8511C-471.377 -13.4328 -473.39 -11.3073 -474.061 -10.5988L-472.301 -8.9601Z" fill="#FFF200"/>
</g>
</g>
</svg>
