<svg preserveAspectRatio="none" overflow="visible" style="display: block;" width="79.7691" height="11.2615" viewBox="0 0 79.7691 11.2615" fill="none" xmlns="http://www.w3.org/2000/svg">
<g id="nuni-cheeks">
<path id="Vector" d="M9.38463 11.2615C14.5676 11.2615 18.7692 8.74052 18.7692 5.63074C18.7692 2.52097 14.5676 0 9.38463 0C4.20167 0 5.72205e-05 2.52097 5.72205e-05 5.63074C5.72205e-05 8.74052 4.20167 11.2615 9.38463 11.2615Z" fill="url(#paint0_radial_0_27)"/>
<path id="Vector_2" d="M70.3845 11.2615C75.5675 11.2615 79.7691 8.74054 79.7691 5.63076C79.7691 2.52099 75.5675 1.78334e-05 70.3845 1.78334e-05C65.2016 1.78334e-05 61 2.52099 61 5.63076C61 8.74054 65.2016 11.2615 70.3845 11.2615Z" fill="url(#paint1_radial_0_27)"/>
</g>
<defs>
<radialGradient id="paint0_radial_0_27" cx="0" cy="0" r="1" gradientUnits="userSpaceOnUse" gradientTransform="translate(9.38463 5.63074) scale(9.38457 5.63074)">
<stop stop-color="#F6A8A4" stop-opacity="0.6"/>
<stop offset="0.62" stop-color="#F6A8A4" stop-opacity="0.26"/>
<stop offset="1" stop-color="#F6A8A4" stop-opacity="0"/>
</radialGradient>
<radialGradient id="paint1_radial_0_27" cx="0" cy="0" r="1" gradientUnits="userSpaceOnUse" gradientTransform="translate(70.3845 5.63076) scale(9.38457 5.63074)">
<stop stop-color="#F6A8A4" stop-opacity="0.6"/>
<stop offset="0.62" stop-color="#F6A8A4" stop-opacity="0.26"/>
<stop offset="1" stop-color="#F6A8A4" stop-opacity="0"/>
</radialGradient>
</defs>
</svg>
